<svg xmlns="http://www.w3.org/2000/svg" width="60.952" height="60.952" viewBox="0 0 60.952 60.952"><g transform="translate(-0.524 -0.525)"><g transform="translate(-609 -140)"><g transform="translate(608 139)"><path d="M51.81,35.962h-6.4a1.524,1.524,0,1,1,0-3.048h6.4a23.437,23.437,0,0,0,4.571-.61,14.731,14.731,0,0,0,2.133-.914,2.17,2.17,0,0,0,.915-1.828,4.327,4.327,0,0,0-.61-1.829c-1.524-1.828-4.267-3.047-7.924-4.266-.305,0-.305-.305-.61-.305a4.744,4.744,0,0,1-1.828-2.438,3.2,3.2,0,0,1,1.524-2.743c2.133-3.048,3.352-5.79,3.048-8.229A5.658,5.658,0,0,0,50.9,6.1a5.941,5.941,0,0,0-7.01,0,5.661,5.661,0,0,0-2.133,3.657c-.3,2.438.915,5.181,3.048,8.229a1.524,1.524,0,0,1-2.438,1.829C39.314,16.152,38.1,12.5,38.705,9.143a8.09,8.09,0,0,1,3.352-5.486,8.693,8.693,0,0,1,10.667,0,8.815,8.815,0,0,1,3.352,5.486c.305,3.352-.914,7.01-3.657,10.667-.305.3-.305.609-.61.609a.3.3,0,0,1,.305.305c3.962,1.219,7.01,3.047,8.838,5.18a5.794,5.794,0,0,1,1.524,3.963,5.332,5.332,0,0,1-2.133,4.266A9.507,9.507,0,0,1,57.3,35.657C55.467,35.657,53.638,35.962,51.81,35.962Z" fill-rule="evenodd"/><path d="M18.59,35.962h-6.4a14.772,14.772,0,0,1-5.485-.914,9.538,9.538,0,0,1-3.048-1.524,5.821,5.821,0,0,1-2.133-4.267A6.42,6.42,0,0,1,3.048,25.3c2.133-2.133,5.18-3.657,9.142-4.876a.3.3,0,0,0,.305-.305,1.061,1.061,0,0,1-.305-.61C9.143,15.849,7.62,11.887,8.23,8.839a8.083,8.083,0,0,1,3.352-5.486,8.693,8.693,0,0,1,10.667,0A8.815,8.815,0,0,1,25.6,8.839c.305,3.352-.914,7.01-3.657,10.667a1.876,1.876,0,0,1-2.133.305c-.61-.61-.915-1.524-.305-2.134,2.438-3.047,3.352-6.095,3.047-8.228A4.649,4.649,0,0,0,20.42,5.791a5.949,5.949,0,0,0-7.01,0,4.618,4.618,0,0,0-2.133,3.353c-.305,2.438.914,5.18,3.048,8.228.61.915,1.524,1.829,1.219,2.743,0,1.22-.914,1.829-1.829,2.438a1.061,1.061,0,0,1-.61.305C9.753,24.382,7.315,25.6,5.487,27.43a4.332,4.332,0,0,0-.61,1.828,1.845,1.845,0,0,0,.914,1.829A14.91,14.91,0,0,0,7.925,32a9.727,9.727,0,0,0,4.266.914h6.4a1.524,1.524,0,1,1,0,3.048Z" fill-rule="evenodd"/><path d="M38.4,62.476h-12.5a18.452,18.452,0,0,1-7.315-1.219,10.563,10.563,0,0,1-3.657-2.133,5.647,5.647,0,0,1-2.743-5.181,7.47,7.47,0,0,1,1.829-4.876c2.438-2.743,6.4-4.877,11.886-6.705l.914-.914-.914-.915c-3.962-5.18-5.79-9.752-5.181-14.019A11.4,11.4,0,0,1,24.99,19.5c3.962-2.742,10.058-2.742,13.715,0a10.192,10.192,0,0,1,4.266,7.01c.61,4.267-1.219,9.143-4.876,14.02-.914.914-.914,1.218-.914,1.218a4.364,4.364,0,0,1,.914.61c5.486,1.828,9.448,3.962,11.886,6.7a6.92,6.92,0,0,1,1.829,4.876,7.138,7.138,0,0,1-2.439,5.486,10.545,10.545,0,0,1-3.657,2.133,30.031,30.031,0,0,1-7.314.914ZM32,20.114a10.276,10.276,0,0,0-5.181,1.524,7.113,7.113,0,0,0-3.048,5.181c-.3,3.352,1.22,7.314,4.267,11.581.914.914,1.829,1.829,1.524,3.352,0,1.22-1.22,2.134-2.133,3.048a1.065,1.065,0,0,1-.61.305,24.717,24.717,0,0,0-10.971,6.1,7.278,7.278,0,0,0-.61,2.743,3.75,3.75,0,0,0,1.524,3.047,7.13,7.13,0,0,0,3.048,1.524,19.629,19.629,0,0,0,6.095.915H38.4a19.633,19.633,0,0,0,6.1-.915,9.5,9.5,0,0,0,3.048-1.524,3.75,3.75,0,0,0,1.524-3.047,3.309,3.309,0,0,0-1.22-2.743c-2.133-2.438-5.79-4.267-10.97-6.1-.306,0-.306-.305-.61-.305-.915-.914-2.134-1.829-2.134-3.048A5.3,5.3,0,0,1,35.962,38.4c3.048-3.962,4.571-8.229,4.267-11.581a7.721,7.721,0,0,0-3.048-5.18A10.268,10.268,0,0,0,32,20.114Z" fill-rule="evenodd"/></g></g></g></svg>