<svg xmlns="http://www.w3.org/2000/svg" width="54.501" height="51.59" viewBox="0 0 54.501 51.59"><path d="M61.246,87.4H44.21q-.2-.017.069.017a.871.871,0,0,1-.191-.041c-.023-.006-.185-.041-.185-.058.046.017.093.041.133.058-.046-.023-.093-.046-.133-.069-.023-.012-.191-.1-.191-.122.041.029.075.058.116.087-.041-.035-.075-.069-.11-.1.006.006-.1-.1-.1-.11.1.139.116.156.041.052-.029-.041-.058-.087-.081-.127l-.035-.069c-.052-.116-.046-.093.023.069a1.092,1.092,0,0,1-.069-.22.579.579,0,0,1-.029-.156c.006.052.017.1.023.151a1.517,1.517,0,0,1-.006-.162V69.556c.012-.1.006-.1-.006-.006-.006.023-.006.052-.012.075a1.481,1.481,0,0,1,.029-.156.985.985,0,0,1,.069-.22c-.069.156-.075.179-.023.069.023-.046.046-.087.075-.133.012-.023.029-.041.041-.064.058-.081.058-.081,0-.006-.017.017-.029.041-.046.058.035-.041.069-.075.1-.11l.052-.052c.093-.081.075-.069-.058.035,0-.023.168-.11.191-.122l.069-.035c.116-.052.093-.046-.069.023a.831.831,0,0,0,.145-.046c.023-.006.22-.069.232-.052q-.269.035-.069.017H59.336c.637,0,1.279-.012,1.916,0h.081q.2.017-.069-.017c.012-.017.208.046.232.052s.052.017.075.023c.116.046.1.035-.064-.029.012-.012.151.081.168.087s.156.081.156.1c-.041-.029-.075-.058-.116-.087.041.035.075.069.11.1l.052.052c.081.093.069.075-.035-.058.041,0,.139.226.162.26.1.156-.046-.069-.023-.069a1.092,1.092,0,0,1,.069.22c.006.023.012.052.017.075.023.127.017.1-.006-.075a1.516,1.516,0,0,1,.006.162V79.5c0,2.356.029,4.712,0,7.068v.11q-.017.2.017-.069c.017.012-.046.208-.052.232s-.1.255-.023.081-.029.046-.041.069-.1.191-.122.191c.029-.041.058-.075.087-.116-.035.041-.069.075-.1.11l-.052.052c-.093.081-.075.069.058-.035a.6.6,0,0,1-.127.087,1.009,1.009,0,0,1-.2.11c.046-.017.093-.041.133-.058a1.4,1.4,0,0,1-.145.046c-.023.006-.22.069-.232.052.052-.006.1-.017.151-.023a1.626,1.626,0,0,0-.168-.006,1.158,1.158,0,0,0,0,2.316,3.169,3.169,0,0,0,3.126-3.126c.006-.2,0-.388,0-.585V72.1c0-.816.012-1.632,0-2.449a3.177,3.177,0,0,0-2.124-2.987,4.012,4.012,0,0,0-1.36-.168H44.418a3.2,3.2,0,0,0-2.449,1.025,3.326,3.326,0,0,0-.81,2.269v16.5A3.777,3.777,0,0,0,41.5,88a3.166,3.166,0,0,0,2.831,1.708c2.5.017,5.007,0,7.508,0h9.4a1.155,1.155,0,0,0,.006-2.31Zm0,7.468H44.331a3.188,3.188,0,0,0-2.975,2.049,7.764,7.764,0,0,0-.2,2.692v15.2a3.134,3.134,0,0,0,3.282,3.271H59.66a6.973,6.973,0,0,0,2.935-.313,3.157,3.157,0,0,0,1.777-2.854V104.753c0-2.252.041-4.5,0-6.756a3.171,3.171,0,0,0-3.126-3.132,1.158,1.158,0,0,0,0,2.316h.081q.2.017-.069-.017c.012-.017.208.046.232.052s.052.017.075.023c.116.046.1.035-.064-.029.012-.012.151.081.168.087s.156.081.156.1c-.041-.029-.075-.058-.116-.087.041.035.075.069.11.1l.052.052c.081.093.069.075-.035-.058.041,0,.139.226.162.26.1.156-.046-.069-.023-.069a1.092,1.092,0,0,1,.069.22c.006.023.012.052.017.075.023.127.017.1-.006-.075a1.518,1.518,0,0,1,.006.162v14.605c0,.776.012,1.546,0,2.321v.11q-.017.2.017-.069c.017.012-.046.208-.052.232s-.1.255-.023.081-.064.1-.081.133-.029.041-.041.064c-.069.1-.058.081.041-.052a1.352,1.352,0,0,1-.156.162c-.168.185.214-.122,0,.006a.952.952,0,0,0-.127.081l-.069.035c-.116.052-.093.046.069-.023a1.092,1.092,0,0,1-.22.069l-.075.017c-.127.023-.1.017.075-.006a.786.786,0,0,0-.162.006c-.185.006-.376,0-.562,0H44.215c-.272.006.249.064-.006.006l-.151-.035c-.023-.006-.052-.017-.075-.023-.116-.046-.1-.035.064.029a1.008,1.008,0,0,1-.2-.11c-.023-.012-.041-.029-.064-.041-.1-.069-.081-.058.052.041a1.352,1.352,0,0,1-.162-.156c-.133-.122.064.058.035.058s-.139-.226-.162-.261c-.133-.214.058.243,0-.006-.017-.075-.041-.15-.058-.226-.052-.179.029.081.006.075a1.516,1.516,0,0,1-.006-.162V97.916c-.006-.237,0,.081-.017.069s.046-.208.052-.232.017-.052.023-.075c.046-.116.035-.1-.029.064-.017-.017.133-.237.151-.266.116-.191-.035.064-.041.052a1.352,1.352,0,0,1,.156-.162c.168-.185-.214.122,0-.006.064-.041.133-.075.2-.116.214-.133-.243.058.006,0,.052-.012.1-.029.151-.041l.075-.017c.127-.023.1-.017-.075.006a1.516,1.516,0,0,1,.162-.006H61.258a1.169,1.169,0,0,0,1.158-1.158A1.2,1.2,0,0,0,61.246,94.865Zm8.07-20.938H91.377c1.019,0,2.038.029,3.057,0h.046a1.158,1.158,0,1,0,0-2.316H72.418c-1.019,0-2.038-.029-3.057,0h-.046a1.158,1.158,0,0,0,0,2.316Zm16.07,8.359H69.316a1.158,1.158,0,0,0,0,2.316h16.07a1.158,1.158,0,1,0,0-2.316Zm-16.07,20.006H91.377c1.019,0,2.038.029,3.057,0h.046a1.158,1.158,0,1,0,0-2.316H72.418c-1.019,0-2.038-.029-3.057,0h-.046a1.158,1.158,0,0,0,0,2.316Zm16.07,8.359H69.316a1.158,1.158,0,0,0,0,2.316h16.07a1.158,1.158,0,1,0,0-2.316Z" transform="translate(-41.138 -66.5)"/></svg>